<svg xmlns="http://www.w3.org/2000/svg" height="512" viewBox="0 0 512.087 512.087" width="512"><path d="M7.208 108.222c2.852-2.566 5.855-5.013 9.019-7.32l66.109-48.095c16.245-11.778 34.704-18.854 53.922-20.793-8.835-12.865-21.532-22.463-37.139-27.789-23.26-7.937-46.358-4.65-66.786 9.498C5.277 32.447-6.218 66.099 3.727 97.461l3.481 10.761zM507.71 412.971c-5.32-15.524-14.874-28.163-27.664-36.978-1.949 19.194-8.961 37.623-20.761 53.893l-47.914 65.93c-2.335 3.212-4.837 6.271-7.474 9.187l10.563 3.424c7.753 2.465 15.567 3.661 23.231 3.661 23.957 0 46.439-11.687 60.944-32.805 13.682-19.91 16.905-43.46 9.075-66.312zm-72.71-.699c14.146-19.504 18.828-42.238 13.541-65.744-3.984-17.713-12.901-32.603-26.095-43.818-2.921 7.234-7.02 14.045-12.267 20.199l-121.581 142.61a107.82 107.82 0 0 1-28.183 23.453l19.944 11.837c12.864 7.44 26.939 11.014 40.853 11.013a81.33 81.33 0 0 0 65.894-33.645L435 412.272zM46.614 223.664l142.782-121.7c6.168-5.247 12.944-9.344 20.147-12.257-11.216-13.217-26.114-22.152-43.843-26.143-23.506-5.289-46.245-.614-65.754 13.53l-66.044 48.048C.122 149.775-9.564 195.638 11.371 231.826l11.861 19.978a107.26 107.26 0 0 1 23.382-28.14zm219.15 222.396l121.585-142.614c8.008-9.394 11.478-20.838 10.034-33.097s-7.479-22.584-17.452-29.858c-23.466-17.118-42.702-33.276-58.809-49.4-16.124-16.141-32.27-35.382-49.362-58.823-7.269-9.969-17.587-16.005-29.835-17.454s-23.693 2.006-33.09 10L66.09 246.482c-32.487 27.73-36.708 77.016-9.41 109.866 16.213 19.511 31.631 36.532 47.136 52.037 15.517 15.517 32.544 30.938 52.055 47.144 14.56 12.093 32.34 17.997 50.041 17.997 22.267-.001 44.409-9.344 59.852-27.466z"/></svg>