<svg xmlns="http://www.w3.org/2000/svg" height="512" viewBox="0 0 512.087 512.087" width="512"><path d="M135 0c-8.291 0-15 6.709-15 15v105H90V15c0-8.291-6.709-15-15-15S60 6.709 60 15v105H30V15c0-8.291-6.709-15-15-15S0 6.709 0 15v150c0 24.814 20.186 46 45 46h60c24.814 0 45-21.186 45-46V15c0-8.291-6.709-15-15-15zm227 316V171.328c0-.042.007-.082.007-.124C337.248 140.25 298.631 120 256 120c-27.288 0-54.128 8.077-76 22.787V165c0 30.676-18.56 58.036-45 69.643v81.907C157.286 360.506 203.434 391 256 391c44.998 0 85.659-22.341 110.202-56.285C363.567 328.999 362 322.696 362 316zm45 45c-6.969 0-13.491-1.727-19.385-4.567C357.419 395.611 309.174 421 256 421c-47.296 0-90.888-20.114-121-52.103v78.199C169.757 469.086 211.829 482 256 482c65.288 0 124.898-28.977 166-73.394V361h-15zM256 30c-26.34 0-52.509 4.759-76 13.076v64.916C202.83 96.313 229.349 90 256 90c41.803 0 80.909 15.753 110.016 41.47 3.891-21.182 10.437-41.64 19.951-60.674C349.43 45.167 304.019 30 256 30zM504.075 1.772c-4.849-2.607-10.781-2.314-15.396.747C420.268 48.127 392 107.075 392 171.328V316c0 8.291 6.709 15 15 15h45v151c0 16.567 13.431 30 30 30s30-13.433 30-30V15c0-5.537-3.047-10.62-7.925-13.228zM45 241v241c0 16.567 13.431 30 30 30s30-13.433 30-30V241H45z"/></svg>