<svg xmlns="http://www.w3.org/2000/svg" width="131" height="120"><path d="M34.006 95.511c-8.711 0-16.46-5.578-19.274-13.883l-.19-.626c-.664-2.199-.942-4.049-.942-5.899V38L.399 82.069c-1.698 6.482 2.171 13.202 8.662 14.993l84.142 22.536a12.48 12.48 0 0 0 3.135.403c5.419 0 10.371-3.597 11.759-8.898L113 95.511H34.006zM49.001 38C55.067 38 60 33.066 60 27s-4.933-11-10.999-11S38 20.934 38 27s4.934 11 11.001 11zm68.373-38h-81.75C28.115 0 22 6.101 22 13.594v59.811C22 80.899 28.115 87 35.625 87h81.75C124.885 87 131 80.899 131 73.406V13.594C131 6.101 124.885 0 117.374 0zm-81.75 10.875h81.75c1.505 0 2.725 1.218 2.725 2.719v38.601l-17.216-20.043c-1.826-2.137-4.47-3.279-7.309-3.343-2.823.016-5.472 1.266-7.281 3.431L68.051 56.48l-6.594-6.563c-3.727-3.719-9.794-3.719-13.516 0L32.9 64.918V13.594c0-1.501 1.22-2.719 2.724-2.719z"/></svg>