<svg xmlns="http://www.w3.org/2000/svg" height="512" viewBox="0 0 512.087 512.087" width="512"><path d="M407 512H105C47.109 512 0 464.891 0 407c0-8.291 6.709-15 15-15h482c8.291 0 15 6.709 15 15 0 57.891-47.109 105-105 105zM256 0C115.39 0 0 87.48 0 195c0 8.291 6.709 15 15 15h482c8.291 0 15-6.709 15-15C512 87.48 396.61 0 256 0zM145.605 115.605l-30 30c-5.859 5.859-15.351 5.86-21.211 0a15 15 0 0 1 0-21.211l30-30a15 15 0 0 1 21.211 0c5.859 5.859 5.86 15.352 0 21.211zm91 0l-30 30c-5.859 5.859-15.351 5.86-21.211 0a15 15 0 0 1 0-21.211l30-30a15 15 0 0 1 21.211 0c5.859 5.859 5.86 15.352 0 21.211zm90 0l-30 30c-5.859 5.859-15.351 5.86-21.211 0a15 15 0 0 1 0-21.211l30-30a15 15 0 0 1 21.211 0c5.859 5.859 5.86 15.352 0 21.211zm82.666 0l-30 30c-5.859 5.859-15.351 5.86-21.211 0a15 15 0 0 1 0-21.211l30-30a15 15 0 0 1 21.211 21.211zM15 271c7.2 0 13.5.899 18.9 2.399-2.117 6.82-2.71 8.859-3.9 30-3.9-1.5-8.699-2.399-15-2.399-8.401 0-15-6.601-15-15s6.599-15 15-15zm497 15c0 8.399-6.599 15-15 15-6.301 0-11.1.899-15 2.399-.324-5.758.288-16.508-3.9-30 5.4-1.5 11.7-2.399 18.9-2.399 8.401 0 15 6.599 15 15z"/><path d="M33.9 273.399C47.4 276.7 56.4 283.3 63.9 289c9.3 6.899 16.199 12 31.199 12S116.7 295.899 126 288.999C136.8 280.898 151 271 175.9 271c25.199 0 38.399 9.899 49.199 17.999C234.401 295.899 241 301 256 301s21.599-5.101 30.901-12.001c10.8-8.101 24-17.999 49.199-17.999 24.901 0 39.101 9.899 49.9 17.999 9.3 6.899 15.901 12.001 30.901 12.001s21.899-5.101 31.199-12.001c7.5-5.7 16.5-12.299 30-15.601-3.164-11.788-8.436-22.659-15.216-32.399H49.116c-6.78 9.74-12.052 20.611-15.216 32.4zM463.093 361c11.506-16.421 18.455-36.237 18.907-57.601-6 2.1-10.499 5.7-15.901 9.6-10.8 8.101-24 18.001-49.199 18.001-24.9 0-38.1-9.901-48.9-18.001-9.3-6.9-16.901-11.999-31.901-11.999s-21.899 5.099-31.199 11.999C294.401 321.1 280.9 331 256 331s-38.401-9.901-48.9-18.001c-9.3-6.9-16.199-11.999-31.199-11.999S153.3 306.099 144 312.999C133.2 321.099 120 331 95.099 331 69.9 331 56.7 321.099 45.9 312.999c-5.402-3.9-9.901-7.5-15.901-9.6.452 21.365 7.401 41.18 18.907 57.601z"/></svg>