<svg xmlns="http://www.w3.org/2000/svg" height="512" viewBox="0 0 512.087 512.087" width="512"><path d="M177.662 157.349C79.699 157.349 0 236.897 0 334.675S79.699 512 177.662 512s177.663-79.548 177.663-177.325-79.699-177.326-177.663-177.326zM89.48 289.653h30.063v30H89.48zm53.975 135.021h-30.062v-30h30.062zm61.566-165.282h-30.062v-30h30.062zm40.762 165.282h-30.062v-30h30.062zm30.778-87.021h-30.063v-30h30.063zM508.52 142.23l-2.28-11.33-11.54-.68c-60.9-3.62-109.559-52.17-113.19-112.93l-.69-11.54-11.34-2.27C357.98 1.17 346.16 0 334.33 0c-46.52 0-90.5 17.83-123.849 50.19-22.38 21.73-38.35 48.41-46.82 77.63 4.63-.31 9.3-.47 14-.47 114.509 0 207.659 93.01 207.659 207.33a205.34 205.34 0 0 1-.39 12.69c29.06-8.58 55.58-24.54 77.149-46.81 32.19-33.23 49.92-77 49.92-123.23.001-11.8-1.169-23.61-3.479-35.1zm-163.066-23.22h-30.062v-30h30.062zm80.09 77.812h-30v-30h30z"/></svg>